<?xml version="1.0" standalone="no"?>
<!DOCTYPE svg PUBLIC "-//W3C//DTD SVG 20010904//EN"
 "http://www.w3.org/TR/2001/REC-SVG-20010904/DTD/svg10.dtd">
<svg version="1.0" xmlns="http://www.w3.org/2000/svg"
 width="16.000000pt" height="16.000000pt" viewBox="0 0 16.000000 16.000000"
 preserveAspectRatio="xMidYMid meet">
<metadata>
Created by potrace 1.11, written by Peter Selinger 2001-2013
</metadata>
<g transform="translate(0.000000,16.000000) scale(0.016667,-0.016667)"
fill="#000000" stroke="none">
<path d="M350 946 c-166 -46 -303 -192 -338 -359 -20 -98 8 -276 53 -332 16
-19 16 -19 9 4 -8 28 -8 145 0 179 21 94 106 201 195 246 115 58 247 50 355
-20 l39 -26 75 75 75 75 -44 41 c-51 49 -107 84 -169 106 -58 20 -193 26 -250
11z"/>
<path d="M177 568 c-89 -119 -108 -296 -41 -385 88 -116 225 -185 363 -182 61
2 95 15 154 62 36 28 111 126 103 135 -2 2 -26 -4 -52 -13 -96 -31 -186 -24
-277 20 -125 61 -201 178 -214 325 -3 36 -7 66 -8 68 -2 2 -14 -12 -28 -30z"/>
<path d="M922 368 c-16 -29 -50 -73 -75 -98 -25 -24 -49 -56 -52 -70 -9 -34
-63 -117 -88 -135 -13 -9 -16 -15 -8 -15 41 0 161 120 204 205 15 30 58 165
52 165 -2 0 -17 -24 -33 -52z"/>
</g>
</svg>
